G75*
G70*
%OFA0B0*%
%FSLAX24Y24*%
%IPPOS*%
%LPD*%
%AMOC8*
5,1,8,0,0,1.08239X$1,22.5*
%
%ADD10R,0.0394X0.1339*%
%ADD11R,0.2677X0.3780*%
%ADD12R,0.0800X0.0260*%
%ADD13R,0.0315X0.0157*%
%ADD14R,0.1161X0.1063*%
%ADD15R,0.0866X0.0630*%
%ADD16R,0.0433X0.0394*%
%ADD17R,0.0710X0.0630*%
%ADD18R,0.1260X0.0709*%
%ADD19R,0.0630X0.0709*%
%ADD20R,0.0354X0.0276*%
%ADD21R,0.0709X0.0630*%
%ADD22C,0.0860*%
%ADD23C,0.0160*%
%ADD24R,0.0436X0.0436*%
%ADD25R,0.0396X0.0396*%
D10*
X019185Y013090D03*
X021185Y013090D03*
D11*
X020185Y017066D03*
D12*
X015895Y013438D03*
X015895Y012938D03*
X015895Y012438D03*
X015895Y011938D03*
X013475Y011938D03*
X013475Y012438D03*
X013475Y012938D03*
X013475Y013438D03*
D13*
X005000Y014932D03*
X005000Y015188D03*
X005000Y015444D03*
X004370Y015444D03*
X004370Y015188D03*
X004370Y014932D03*
D14*
X004513Y009688D03*
X001856Y009688D03*
X010356Y002688D03*
X013013Y002688D03*
D15*
X002685Y003637D03*
X002685Y004739D03*
D16*
X010685Y010354D03*
X010685Y011023D03*
D17*
X010685Y007248D03*
X010685Y006128D03*
D18*
X021185Y007086D03*
X021185Y009291D03*
D19*
X015236Y008188D03*
X014134Y008188D03*
D20*
X007185Y010432D03*
X007185Y010944D03*
D21*
X010685Y013637D03*
X010685Y014739D03*
D22*
X017755Y005078D02*
X018615Y005078D01*
X019366Y003618D02*
X019366Y002758D01*
X017004Y002758D02*
X017004Y003618D01*
D23*
X002685Y003788D02*
X002685Y002588D01*
X008685Y002588D01*
X008685Y000988D01*
X015385Y000988D01*
X015385Y003188D01*
X017085Y003188D01*
X019385Y003188D02*
X019385Y005088D01*
X019385Y005388D01*
X019385Y007288D01*
X016785Y007288D01*
X016785Y012288D01*
X016785Y012988D01*
X015585Y012988D01*
X015585Y013488D02*
X017185Y013488D01*
X017185Y010288D01*
X021185Y010288D01*
X021185Y013688D01*
X019185Y013788D02*
X019185Y011688D01*
X017585Y011688D01*
X017585Y014788D01*
X012785Y014788D01*
X012785Y013488D01*
X013785Y013488D01*
X013885Y012888D02*
X011285Y012888D01*
X011285Y012088D01*
X010685Y012088D01*
X010685Y013788D01*
X010685Y014588D02*
X010685Y016388D01*
X008585Y015888D02*
X008585Y011388D01*
X010685Y011388D01*
X010685Y012088D01*
X010685Y011388D02*
X010685Y010988D01*
X010685Y010388D02*
X010685Y009988D01*
X012585Y009988D01*
X012585Y012388D01*
X013885Y012388D01*
X013885Y011988D02*
X013185Y011988D01*
X013185Y008088D01*
X013185Y004588D01*
X014485Y004588D01*
X014485Y005088D01*
X019385Y005088D01*
X019385Y005388D02*
X019385Y005788D01*
X021185Y005788D01*
X021185Y007288D01*
X021185Y009088D02*
X021185Y010288D01*
X016785Y012288D02*
X016785Y012488D01*
X015485Y012488D01*
X015485Y011988D02*
X016385Y011988D01*
X016385Y008088D01*
X015085Y008088D01*
X014285Y008088D02*
X013185Y008088D01*
X010685Y007088D02*
X010685Y009988D01*
X007185Y009988D01*
X007185Y010488D01*
X007185Y010888D02*
X007185Y011388D01*
X005985Y011388D01*
X002385Y011388D01*
X002385Y018188D01*
X003085Y017288D02*
X007885Y017288D01*
X007785Y017288D01*
X007885Y017288D02*
X014385Y017288D01*
X014385Y015588D01*
X020085Y015588D01*
X020085Y017588D01*
X008585Y015888D02*
X003885Y015888D01*
X003885Y015488D01*
X004485Y015488D01*
X004885Y014888D02*
X005885Y014888D01*
X005885Y014288D01*
X003085Y014288D01*
X003085Y017288D01*
X000585Y018188D02*
X000585Y011388D01*
X000985Y011388D01*
X000985Y009488D01*
X000985Y009588D01*
X002285Y009588D01*
X000985Y009488D02*
X000985Y007688D01*
X005485Y007688D01*
X005485Y004588D01*
X010785Y004588D01*
X013185Y004588D01*
X014485Y004588D02*
X014485Y002788D01*
X012685Y002788D01*
X010785Y004588D02*
X010685Y004588D01*
X010685Y006288D01*
X010485Y002588D02*
X008685Y002588D01*
X002685Y004588D02*
X002685Y006488D01*
X003985Y009688D02*
X005985Y009688D01*
X005985Y011388D01*
X007185Y011388D02*
X008585Y011388D01*
X006285Y014788D02*
X006285Y014888D01*
X005885Y014888D01*
D24*
X002685Y006388D03*
D25*
X000985Y011388D03*
X006285Y014788D03*
X002385Y018288D03*
X000585Y018288D03*
X010685Y016388D03*
M02*
