G75*
G70*
%OFA0B0*%
%FSLAX24Y24*%
%IPPOS*%
%LPD*%
%AMOC8*
5,1,8,0,0,1.08239X$1,22.5*
%
%ADD10C,0.0160*%
%ADD11C,0.0060*%
%ADD12C,0.0030*%
%ADD13C,0.0010*%
%ADD14C,0.0080*%
%ADD15C,0.0040*%
%ADD16R,0.0340X0.0300*%
%ADD17R,0.0354X0.1102*%
%ADD18C,0.0050*%
%ADD19C,0.0020*%
%ADD20C,0.0118*%
%ADD21C,0.0039*%
D10*
X000185Y000188D02*
X023185Y000188D01*
X023185Y019188D01*
X000185Y019188D01*
X000185Y000188D01*
D11*
X002185Y003568D02*
X002185Y004808D01*
X003185Y004808D02*
X003185Y003568D01*
X013915Y011838D02*
X013915Y013538D01*
X013917Y013561D01*
X013922Y013584D01*
X013931Y013606D01*
X013944Y013626D01*
X013959Y013644D01*
X013977Y013659D01*
X013997Y013672D01*
X014019Y013681D01*
X014042Y013686D01*
X014065Y013688D01*
X014485Y013688D01*
X014885Y013688D01*
X015305Y013688D01*
X015328Y013686D01*
X015351Y013681D01*
X015373Y013672D01*
X015393Y013659D01*
X015411Y013644D01*
X015426Y013626D01*
X015439Y013606D01*
X015448Y013584D01*
X015453Y013561D01*
X015455Y013538D01*
X015455Y011838D01*
X015453Y011815D01*
X015448Y011792D01*
X015439Y011770D01*
X015426Y011750D01*
X015411Y011732D01*
X015393Y011717D01*
X015373Y011704D01*
X015351Y011695D01*
X015328Y011690D01*
X015305Y011688D01*
X014065Y011688D01*
X014042Y011690D01*
X014019Y011695D01*
X013997Y011704D01*
X013977Y011717D01*
X013959Y011732D01*
X013944Y011750D01*
X013931Y011770D01*
X013922Y011792D01*
X013917Y011815D01*
X013915Y011838D01*
X014485Y013688D02*
X014487Y013661D01*
X014492Y013634D01*
X014502Y013608D01*
X014514Y013584D01*
X014530Y013562D01*
X014548Y013542D01*
X014570Y013525D01*
X014593Y013510D01*
X014618Y013500D01*
X014644Y013492D01*
X014671Y013488D01*
X014699Y013488D01*
X014726Y013492D01*
X014752Y013500D01*
X014777Y013510D01*
X014800Y013525D01*
X014822Y013542D01*
X014840Y013562D01*
X014856Y013584D01*
X014868Y013608D01*
X014878Y013634D01*
X014883Y013661D01*
X014885Y013688D01*
X014697Y017718D02*
X014697Y018145D01*
X015017Y018145D01*
X015124Y018038D01*
X015124Y017718D01*
X015342Y017825D02*
X015448Y017718D01*
X015769Y017718D01*
X015986Y017718D02*
X015986Y017825D01*
X016093Y017825D01*
X016093Y017718D01*
X015986Y017718D01*
X015769Y018145D02*
X015448Y018145D01*
X015342Y018038D01*
X015342Y017825D01*
X014481Y017718D02*
X014267Y017718D01*
X014374Y017718D02*
X014374Y018359D01*
X014267Y018359D02*
X014481Y018359D01*
X013405Y018038D02*
X013405Y017932D01*
X012978Y017932D01*
X012978Y018038D02*
X012978Y017825D01*
X013085Y017718D01*
X013299Y017718D01*
X013405Y018038D02*
X013299Y018145D01*
X013085Y018145D01*
X012978Y018038D01*
X012762Y018145D02*
X012549Y018145D01*
X012655Y018252D02*
X012655Y017825D01*
X012762Y017718D01*
X012332Y018145D02*
X012225Y018145D01*
X012012Y017932D01*
X012012Y018145D02*
X012012Y017718D01*
X011794Y017718D02*
X011474Y017718D01*
X011367Y017825D01*
X011474Y017932D01*
X011794Y017932D01*
X011794Y018038D02*
X011794Y017718D01*
X011794Y018038D02*
X011687Y018145D01*
X011474Y018145D01*
X011150Y018252D02*
X011043Y018359D01*
X010829Y018359D01*
X010723Y018252D01*
X010723Y017825D01*
X010829Y017718D01*
X011043Y017718D01*
X011150Y017825D01*
X009860Y017932D02*
X009540Y017932D01*
X009433Y017825D01*
X009540Y017718D01*
X009860Y017718D01*
X009860Y018038D01*
X009754Y018145D01*
X009540Y018145D01*
X009111Y018359D02*
X009111Y017718D01*
X009217Y017718D02*
X009004Y017718D01*
X009004Y018359D02*
X009111Y018359D01*
X008142Y018359D02*
X007715Y018359D01*
X007715Y017718D01*
X008142Y017718D01*
X007928Y018038D02*
X007715Y018038D01*
X020605Y008778D02*
X020605Y007608D01*
X021765Y007608D02*
X021765Y008778D01*
D12*
X013383Y016403D02*
X013383Y016774D01*
X013136Y016774D02*
X013383Y016403D01*
X013136Y016403D02*
X013136Y016774D01*
X013015Y016712D02*
X012953Y016774D01*
X012830Y016774D01*
X012768Y016712D01*
X012768Y016465D01*
X012830Y016403D01*
X012953Y016403D01*
X013015Y016465D01*
X013015Y016588D01*
X012891Y016588D01*
X012647Y016403D02*
X012400Y016403D01*
X012400Y016774D01*
X012647Y016774D01*
X012523Y016588D02*
X012400Y016588D01*
D13*
X002937Y018043D02*
X002887Y017993D01*
X002837Y018043D01*
X002837Y018143D01*
X002790Y018143D02*
X002690Y018143D01*
X002690Y018068D01*
X002740Y018093D01*
X002765Y018093D01*
X002790Y018068D01*
X002790Y018018D01*
X002765Y017993D01*
X002715Y017993D01*
X002690Y018018D01*
X002937Y018043D02*
X002937Y018143D01*
X001284Y018018D02*
X001284Y017918D01*
X001259Y017893D01*
X001184Y017893D01*
X001184Y018043D01*
X001259Y018043D01*
X001284Y018018D01*
X001137Y018043D02*
X001137Y017893D01*
X001037Y018043D01*
X001037Y017893D01*
X000990Y017918D02*
X000990Y017968D01*
X000940Y017968D01*
X000990Y017918D02*
X000965Y017893D01*
X000915Y017893D01*
X000890Y017918D01*
X000890Y018018D01*
X000915Y018043D01*
X000965Y018043D01*
X000990Y018018D01*
D14*
X004468Y015582D02*
X004901Y015582D01*
X004901Y014794D02*
X004468Y014794D01*
X018249Y014964D02*
X018249Y018509D01*
X022121Y018509D02*
X022121Y014964D01*
X018249Y014964D01*
D15*
X018665Y013936D02*
X018665Y013629D01*
X018665Y013782D02*
X018204Y013782D01*
X018358Y013629D01*
X018281Y013475D02*
X018204Y013399D01*
X018204Y013245D01*
X018281Y013169D01*
X018358Y013169D01*
X018435Y013245D01*
X018435Y013399D01*
X018511Y013475D01*
X018588Y013475D01*
X018665Y013399D01*
X018665Y013245D01*
X018588Y013169D01*
X018665Y013015D02*
X018665Y012708D01*
X018204Y012708D01*
X018204Y013015D01*
X018435Y012862D02*
X018435Y012708D01*
X018128Y013322D02*
X018741Y013322D01*
X015816Y009119D02*
X015893Y009042D01*
X015586Y008735D01*
X015662Y008658D01*
X015816Y008658D01*
X015893Y008735D01*
X015893Y009042D01*
X015816Y009119D02*
X015662Y009119D01*
X015586Y009042D01*
X015586Y008735D01*
X015432Y008658D02*
X015125Y008658D01*
X015279Y008658D02*
X015279Y009119D01*
X015125Y008965D01*
X014972Y009042D02*
X014895Y009119D01*
X014742Y009119D01*
X014665Y009042D01*
X014665Y008965D01*
X014742Y008888D01*
X014895Y008888D01*
X014972Y008812D01*
X014972Y008735D01*
X014895Y008658D01*
X014742Y008658D01*
X014665Y008735D01*
X014512Y008658D02*
X014205Y008658D01*
X014205Y009119D01*
X014512Y009119D01*
X014819Y009195D02*
X014819Y008581D01*
X014358Y008888D02*
X014205Y008888D01*
X010315Y010358D02*
X010315Y010665D01*
X010238Y010819D02*
X010315Y010895D01*
X010315Y011049D01*
X010238Y011125D01*
X010161Y011125D01*
X010085Y011049D01*
X010085Y010895D01*
X010008Y010819D01*
X009931Y010819D01*
X009854Y010895D01*
X009854Y011049D01*
X009931Y011125D01*
X009854Y011279D02*
X009854Y011586D01*
X009931Y011586D01*
X010238Y011279D01*
X010315Y011279D01*
X010391Y010972D02*
X009778Y010972D01*
X009854Y010665D02*
X009854Y010358D01*
X010315Y010358D01*
X010085Y010358D02*
X010085Y010512D01*
X006941Y011072D02*
X006328Y011072D01*
X006404Y011149D02*
X006481Y011225D01*
X006404Y011149D02*
X006404Y010995D01*
X006481Y010919D01*
X006558Y010919D01*
X006635Y010995D01*
X006635Y011149D01*
X006711Y011225D01*
X006788Y011225D01*
X006865Y011149D01*
X006865Y010995D01*
X006788Y010919D01*
X006865Y010765D02*
X006865Y010458D01*
X006404Y010458D01*
X006404Y010765D01*
X006635Y010612D02*
X006635Y010458D01*
X006558Y011379D02*
X006404Y011532D01*
X006865Y011532D01*
X006865Y011379D02*
X006865Y011686D01*
X006865Y011839D02*
X006865Y012146D01*
X006865Y011993D02*
X006404Y011993D01*
X006558Y011839D01*
X009754Y013708D02*
X010215Y013708D01*
X010215Y014015D01*
X010138Y014169D02*
X010215Y014245D01*
X010215Y014399D01*
X010138Y014475D01*
X010061Y014475D01*
X009985Y014399D01*
X009985Y014245D01*
X009908Y014169D01*
X009831Y014169D01*
X009754Y014245D01*
X009754Y014399D01*
X009831Y014475D01*
X009908Y014629D02*
X009754Y014782D01*
X010215Y014782D01*
X010215Y014629D02*
X010215Y014936D01*
X010215Y015089D02*
X009908Y015396D01*
X009831Y015396D01*
X009754Y015319D01*
X009754Y015166D01*
X009831Y015089D01*
X010215Y015089D02*
X010215Y015396D01*
X010291Y014322D02*
X009678Y014322D01*
X009754Y014015D02*
X009754Y013708D01*
X009985Y013708D02*
X009985Y013862D01*
X004094Y014775D02*
X004094Y015082D01*
X004017Y015235D02*
X004094Y015312D01*
X004094Y015466D01*
X004017Y015542D01*
X003940Y015542D01*
X003864Y015466D01*
X003864Y015312D01*
X003787Y015235D01*
X003710Y015235D01*
X003634Y015312D01*
X003634Y015466D01*
X003710Y015542D01*
X003710Y015696D02*
X003634Y015773D01*
X003634Y015926D01*
X003710Y016003D01*
X003787Y016003D01*
X003864Y015926D01*
X003940Y016003D01*
X004017Y016003D01*
X004094Y015926D01*
X004094Y015773D01*
X004017Y015696D01*
X003864Y015849D02*
X003864Y015926D01*
X003557Y015389D02*
X004171Y015389D01*
X003864Y014929D02*
X003864Y014775D01*
X003634Y014775D02*
X004094Y014775D01*
X003634Y014775D02*
X003634Y015082D01*
X002919Y011074D02*
X002688Y010844D01*
X002995Y010844D01*
X002919Y010614D02*
X002919Y011074D01*
X002535Y010997D02*
X002458Y011074D01*
X002305Y011074D01*
X002228Y010997D01*
X002228Y010921D01*
X002305Y010844D01*
X002458Y010844D01*
X002535Y010767D01*
X002535Y010690D01*
X002458Y010614D01*
X002305Y010614D01*
X002228Y010690D01*
X002075Y010614D02*
X001768Y010614D01*
X001768Y011074D01*
X002075Y011074D01*
X001921Y010844D02*
X001768Y010844D01*
X002381Y011151D02*
X002381Y010537D01*
X001988Y004886D02*
X001911Y004886D01*
X001835Y004809D01*
X001835Y004579D01*
X001988Y004579D01*
X002065Y004656D01*
X002065Y004809D01*
X001988Y004886D01*
X001681Y004732D02*
X001835Y004579D01*
X001911Y004425D02*
X001835Y004349D01*
X001835Y004195D01*
X001758Y004119D01*
X001681Y004119D01*
X001604Y004195D01*
X001604Y004349D01*
X001681Y004425D01*
X001528Y004272D02*
X002141Y004272D01*
X002065Y004195D02*
X002065Y004349D01*
X001988Y004425D01*
X001911Y004425D01*
X002065Y004195D02*
X001988Y004119D01*
X002065Y003965D02*
X002065Y003658D01*
X001604Y003658D01*
X001604Y003965D01*
X001835Y003812D02*
X001835Y003658D01*
X001681Y004732D02*
X001604Y004886D01*
X009754Y006158D02*
X010215Y006158D01*
X010215Y006465D01*
X010138Y006619D02*
X010215Y006695D01*
X010215Y006849D01*
X010138Y006925D01*
X010061Y006925D01*
X009985Y006849D01*
X009985Y006695D01*
X009908Y006619D01*
X009831Y006619D01*
X009754Y006695D01*
X009754Y006849D01*
X009831Y006925D01*
X009831Y007079D02*
X009754Y007156D01*
X009754Y007309D01*
X009831Y007386D01*
X009908Y007386D01*
X009985Y007309D01*
X009985Y007156D01*
X009908Y007079D01*
X009831Y007079D01*
X009985Y007156D02*
X010061Y007079D01*
X010138Y007079D01*
X010215Y007156D01*
X010215Y007309D01*
X010138Y007386D01*
X010061Y007386D01*
X009985Y007309D01*
X009678Y006772D02*
X010291Y006772D01*
X009985Y006312D02*
X009985Y006158D01*
X009754Y006158D02*
X009754Y006465D01*
X011761Y001763D02*
X011761Y001303D01*
X012067Y001303D01*
X012221Y001379D02*
X012298Y001303D01*
X012451Y001303D01*
X012528Y001379D01*
X012528Y001456D01*
X012451Y001533D01*
X012298Y001533D01*
X012221Y001610D01*
X012221Y001686D01*
X012298Y001763D01*
X012451Y001763D01*
X012528Y001686D01*
X012681Y001763D02*
X012681Y001533D01*
X012835Y001610D01*
X012911Y001610D01*
X012988Y001533D01*
X012988Y001379D01*
X012911Y001303D01*
X012758Y001303D01*
X012681Y001379D01*
X012374Y001226D02*
X012374Y001840D01*
X012067Y001763D02*
X011761Y001763D01*
X011761Y001533D02*
X011914Y001533D01*
X012681Y001763D02*
X012988Y001763D01*
X019954Y007158D02*
X020415Y007158D01*
X020415Y007465D01*
X020338Y007619D02*
X020415Y007695D01*
X020415Y007849D01*
X020338Y007925D01*
X020261Y007925D01*
X020185Y007849D01*
X020185Y007695D01*
X020108Y007619D01*
X020031Y007619D01*
X019954Y007695D01*
X019954Y007849D01*
X020031Y007925D01*
X020031Y008079D02*
X020108Y008079D01*
X020185Y008156D01*
X020185Y008386D01*
X020338Y008386D02*
X020415Y008309D01*
X020415Y008156D01*
X020338Y008079D01*
X020491Y007772D02*
X019878Y007772D01*
X020031Y008079D02*
X019954Y008156D01*
X019954Y008309D01*
X020031Y008386D01*
X020338Y008386D01*
X019954Y007465D02*
X019954Y007158D01*
X020185Y007158D02*
X020185Y007312D01*
X020977Y001245D02*
X020977Y000631D01*
X020900Y000708D02*
X021054Y000708D01*
X021130Y000785D01*
X021130Y000862D01*
X021054Y000938D01*
X020900Y000938D01*
X020824Y001015D01*
X020824Y001092D01*
X020900Y001169D01*
X021054Y001169D01*
X021130Y001092D01*
X021284Y001015D02*
X021437Y001169D01*
X021437Y000708D01*
X021284Y000708D02*
X021591Y000708D01*
X021744Y000785D02*
X021821Y000708D01*
X021974Y000708D01*
X022051Y000785D01*
X022051Y000862D01*
X021974Y000938D01*
X021898Y000938D01*
X021974Y000938D02*
X022051Y001015D01*
X022051Y001092D01*
X021974Y001169D01*
X021821Y001169D01*
X021744Y001092D01*
X020900Y000708D02*
X020824Y000785D01*
X020670Y000708D02*
X020363Y000708D01*
X020363Y001169D01*
X020670Y001169D01*
X020517Y000938D02*
X020363Y000938D01*
D16*
X020185Y014798D03*
D17*
X021185Y014373D03*
X019185Y014373D03*
D18*
X015181Y014239D02*
X015106Y014314D01*
X014955Y014314D01*
X014880Y014239D01*
X014720Y014239D02*
X014645Y014314D01*
X014495Y014314D01*
X014420Y014239D01*
X014420Y014163D01*
X014495Y014088D01*
X014645Y014088D01*
X014720Y014013D01*
X014720Y013938D01*
X014645Y013863D01*
X014495Y013863D01*
X014420Y013938D01*
X014260Y013863D02*
X013960Y013863D01*
X013960Y014314D01*
X014260Y014314D01*
X014110Y014088D02*
X013960Y014088D01*
X014570Y013788D02*
X014570Y014389D01*
X014880Y013863D02*
X015181Y014163D01*
X015181Y014239D01*
X015181Y013863D02*
X014880Y013863D01*
D19*
X014055Y013688D02*
X014055Y011688D01*
D20*
X004783Y014913D03*
D21*
X016905Y004763D02*
X016905Y004113D01*
X017102Y004113D02*
X017102Y004763D01*
X016905Y004763D01*
X017693Y004263D02*
X017693Y001613D01*
X017102Y001613D01*
X017102Y002263D01*
X016905Y002263D02*
X016905Y001613D01*
X017102Y001613D01*
X017693Y001613D02*
X017693Y001417D01*
X022417Y001417D01*
X022417Y001928D01*
X022023Y001928D01*
X022417Y001928D02*
X022417Y004448D01*
X022023Y004448D01*
X022417Y004448D02*
X022417Y004960D01*
X019193Y004960D01*
X019267Y004448D02*
X018874Y004448D01*
X018874Y004212D01*
X018874Y003818D02*
X018874Y003582D01*
X018874Y002794D01*
X018874Y002558D01*
X018874Y002165D02*
X018874Y001928D01*
X019267Y001928D01*
X019661Y001928D02*
X020055Y001928D01*
X020449Y001928D02*
X020842Y001928D01*
X021039Y001613D02*
X017693Y001613D01*
X019661Y004448D02*
X020055Y004448D01*
X020449Y004448D02*
X020842Y004448D01*
X021236Y004448D02*
X021630Y004448D01*
X021039Y004960D02*
X021039Y001613D01*
X021039Y001417D01*
X021236Y001928D02*
X021630Y001928D01*
X021630Y002794D02*
X021669Y002796D01*
X021707Y002802D01*
X021744Y002811D01*
X021781Y002824D01*
X021816Y002841D01*
X021849Y002860D01*
X021880Y002883D01*
X021909Y002909D01*
X021935Y002938D01*
X021958Y002969D01*
X021977Y003002D01*
X021994Y003037D01*
X022007Y003074D01*
X022016Y003111D01*
X022022Y003149D01*
X022024Y003188D01*
X022022Y003227D01*
X022016Y003265D01*
X022007Y003302D01*
X021994Y003339D01*
X021977Y003374D01*
X021958Y003407D01*
X021935Y003438D01*
X021909Y003467D01*
X021880Y003493D01*
X021849Y003516D01*
X021816Y003535D01*
X021781Y003552D01*
X021744Y003565D01*
X021707Y003574D01*
X021669Y003580D01*
X021630Y003582D01*
M02*
