G75*
G70*
%OFA0B0*%
%FSLAX24Y24*%
%IPPOS*%
%LPD*%
%AMOC8*
5,1,8,0,0,1.08239X$1,22.5*
%
%ADD10R,0.0474X0.1419*%
%ADD11R,0.2757X0.3860*%
%ADD12R,0.0880X0.0340*%
%ADD13R,0.0395X0.0237*%
%ADD14R,0.1241X0.1143*%
%ADD15R,0.0946X0.0710*%
%ADD16R,0.0513X0.0474*%
%ADD17R,0.0790X0.0710*%
%ADD18R,0.1340X0.0789*%
%ADD19R,0.0710X0.0789*%
%ADD20R,0.0434X0.0356*%
%ADD21R,0.0789X0.0710*%
%ADD22C,0.0940*%
%ADD23R,0.0516X0.0516*%
%ADD24R,0.0476X0.0476*%
D10*
X019185Y013090D03*
X021185Y013090D03*
D11*
X020185Y017066D03*
D12*
X015895Y013438D03*
X015895Y012938D03*
X015895Y012438D03*
X015895Y011938D03*
X013475Y011938D03*
X013475Y012438D03*
X013475Y012938D03*
X013475Y013438D03*
D13*
X005000Y014932D03*
X005000Y015188D03*
X005000Y015444D03*
X004370Y015444D03*
X004370Y015188D03*
X004370Y014932D03*
D14*
X004513Y009688D03*
X001856Y009688D03*
X010356Y002688D03*
X013013Y002688D03*
D15*
X002685Y003637D03*
X002685Y004739D03*
D16*
X010685Y010354D03*
X010685Y011023D03*
D17*
X010685Y007248D03*
X010685Y006128D03*
D18*
X021185Y007086D03*
X021185Y009291D03*
D19*
X015236Y008188D03*
X014134Y008188D03*
D20*
X007185Y010432D03*
X007185Y010944D03*
D21*
X010685Y013637D03*
X010685Y014739D03*
D22*
X017755Y005078D02*
X018615Y005078D01*
X019366Y003618D02*
X019366Y002758D01*
X017004Y002758D02*
X017004Y003618D01*
D23*
X002685Y006388D03*
D24*
X000985Y011388D03*
X006285Y014788D03*
X002385Y018288D03*
X000585Y018288D03*
X010685Y016388D03*
M02*
